<?xml version="1.0" encoding="UTF-8"?>
<svg id="Layer_1" data-name="Layer 1" xmlns="http://www.w3.org/2000/svg" viewBox="0 0 850.39 850.39">
  <defs>
    <style>
      .cls-1 {
        fill: none;
      }

      .cls-2 {
        fill: #f58229;
      }

      .cls-3 {
        fill: #efecea;
      }
    </style>
  </defs>
  <path class="cls-3" d="M425.2,85.34l-281.05,86.71v235.33c0,134.51,90.57,250.74,276.88,355.34l4.16,2.34,4.16-2.34c.77-.43,3.42-1.94,3.42-1.94,178.58-101.04,267.95-212.71,273.21-341.37.17-3.82.26-7.75.26-12.04v-235.33l-281.05-86.71ZM187.25,203.42l237.94-74.18,237.94,74.18v206.85c0,22.22-3.17,44.23-9.42,65.41-13.1,44.35-39.43,86.07-80.49,127.55-37,37.38-85.43,73.93-148.04,111.71-61.7-37.23-109.64-73.28-146.44-110.1-41.62-41.65-68.37-83.54-81.75-128.06-6.47-21.52-9.75-43.89-9.75-66.5v-206.85Z"/>
  <g>
    <path class="cls-2" d="M419.17,360.02c-.96.51-1.88,1.07-2.77,1.67-12.33,8.27-17.64,24.32-12.28,38.43,6.07,15.96,23.04,24.11,38.76,19.88,2.35-.63,4.67-1.53,6.92-2.73,14.29-7.61,20.8-24.97,15.05-40.1-6.97-18.35-28.36-26.38-45.69-17.15Z"/>
    <g>
      <path class="cls-1" d="M518.57,290.88c-29.4-29.65-71.49-43.26-114.51-37.31-.35.05-.7.09-1.05.14-4.29.61-8.57,1.45-12.84,2.5-1.11.28-2.21.55-3.33.86-4.83,1.32-9.65,2.91-14.42,4.8-24.2,9.56-44.14,25.25-58.75,44.6-11.01,14.57-20.01,31.12-25.02,48.72-3.44,14.57-4.5,29.76-2.96,44.97,1.98,6.3,7.74,10.86,14.53,11.21l15.48.8"/>
      <path class="cls-2" d="M300.23,411.37c-6.8-.35-12.56-4.91-14.53-11.21-1.54-15.2-.47-30.39,2.96-44.97,5.01-17.6,14.01-34.16,25.02-48.72,14.61-19.35,34.55-35.04,58.75-44.6,4.77-1.89,9.59-3.48,14.42-4.8,1.12-.3,2.22-.58,3.33-.86,4.27-1.05,8.55-1.89,12.84-2.5.35-.05.7-.09,1.05-.14,43.02-5.96,85.11,7.65,114.51,37.31l41.02-24.52c-2.38-2.66-4.82-5.23-7.35-7.7-8.42-8.63-17.62-16.36-27.46-23.08-37.26-25.5-83.41-36.78-129.3-30.13-3.89.56-7.78,1.24-11.67,2.07-10.92,2.32-21.77,5.68-32.46,10.11-7.17,2.98-14.03,6.37-20.59,10.13-3.78,2.15-7.47,4.43-11.05,6.82-34.65,23.2-59.5,57.13-71.87,95.29h0c-12.47,38.38-12.35,81.02,3.06,121.39l.07-.03,61.13-20.05,18.44-6.05,31.63-10.37.41-.18-62.35-3.21Z"/>
    </g>
    <g>
      <path class="cls-1" d="M340.02,463.75l-9.78,12.47c-4.2,5.36-4.55,12.69-1.09,18.32,10.45,11.15,22.61,20.32,35.85,27.3,16.56,7.78,34.96,11.87,53.17,13.13,13.51.95,27.25-.12,40.77-3.32,10.69-2.53,21.24-6.4,31.44-11.69,4.56-2.35,8.92-4.94,13.09-7.72.96-.64,1.9-1.3,2.83-1.95,3.6-2.53,7.04-5.2,10.32-8.04,33.52-28.78,51.23-70.2,47.8-112.52"/>
      <path class="cls-3" d="M368.78,427.09l-.4.19-28.6,17.04-16.67,9.93-55.27,32.93-.06.03c.06.1.11.21.17.31,20.32,37.98,52.32,65.96,89.34,81.71h0c34.78,14.84,74,18.83,112.09,10.13,2.33-.53,4.65-1.11,6.97-1.73,4.15-1.12,8.3-2.41,12.4-3.85,7.15-2.48,14.21-5.43,21.16-8.88,10.36-5.14,20.02-11.12,28.94-17.83,40.58-30.53,65.74-76.09,71.42-124.73,1.39-11.83,1.6-23.84.63-35.87-.22-3.9-.59-7.8-1.11-11.71l-45.36,14.96c3.43,42.32-14.28,83.74-47.8,112.52-3.28,2.83-6.72,5.51-10.32,8.04-.94.65-1.87,1.31-2.83,1.95-4.17,2.78-8.53,5.36-13.09,7.72-10.2,5.28-20.75,9.15-31.44,11.69-13.52,3.21-27.26,4.27-40.77,3.32-18.21-1.26-36.61-5.35-53.17-13.13-13.24-6.98-25.4-16.15-35.85-27.3-3.46-5.63-3.11-12.97,1.09-18.32l9.78-12.47,28.75-36.66Z"/>
    </g>
  </g>
</svg>