<?xml version="1.0" encoding="UTF-8"?>
<svg id="Layer_1" data-name="Layer 1" xmlns="http://www.w3.org/2000/svg" viewBox="0 0 1785.83 850.39">
  <defs>
    <style>
      .cls-1 {
        fill: none;
      }

      .cls-2 {
        fill: #f58229;
      }
    </style>
  </defs>
  <g>
    <g>
      <path class="cls-2" d="M806.03,212.86c8.45,0,15.66.22,21.61.65,5.95.43,11.43,1.08,16.44,1.94,5,.87,10.18,2.07,15.53,3.62l-3.11,28.99c-5.69-.34-10.92-.6-15.66-.78-4.75-.17-9.84-.3-15.27-.39-5.44-.08-11.95-.13-19.54-.13-8.8,0-15.66,1.73-20.58,5.18-4.92,3.45-8.41,9.45-10.48,17.99-2.07,8.54-3.11,20.32-3.11,35.33s1.04,26.79,3.11,35.33c2.07,8.54,5.57,14.54,10.48,17.99,4.92,3.45,11.78,5.18,20.58,5.18,11.91,0,21.91-.17,30.03-.52,8.11-.34,16.13-.95,24.07-1.81l3.36,28.99c-8.28,2.59-16.74,4.44-25.37,5.57-8.63,1.12-19.33,1.68-32.1,1.68-18.47,0-33.26-2.98-44.39-8.93-11.13-5.95-19.15-15.66-24.07-29.12-4.92-13.46-7.38-31.58-7.38-54.36s2.46-40.9,7.38-54.36,12.94-23.17,24.07-29.12c11.13-5.95,25.93-8.93,44.39-8.93Z"/>
      <path class="cls-2" d="M998.87,394.57h40.38l-51.77-168.25c-.87-3.11-2.55-5.61-5.05-7.51-2.5-1.9-5.4-2.85-8.67-2.85h-37.53c-3.28,0-6.17.95-8.67,2.85-2.5,1.9-4.19,4.4-5.05,7.51l-52.03,168.25h40.64l13.1-47.11h61.55l13.1,47.11ZM932.51,317.69l15.12-54.36c.86-2.93,1.59-5.91,2.2-8.93.6-3.02,1.16-5.91,1.68-8.67h6.99c.52,2.76,1.12,5.65,1.81,8.67.69,3.02,1.38,6,2.07,8.93l15.12,54.36h-44.99Z"/>
      <path class="cls-2" d="M1183.95,338.92c-1.38-6.21-3.54-11.17-6.47-14.88-2.94-3.71-6.08-6.51-9.45-8.41-3.36-1.9-6.6-3.11-9.71-3.62v-1.29c8.63-1.04,15.44-3.45,20.45-7.25,5-3.79,8.58-8.84,10.74-15.14,2.16-6.3,3.24-13.59,3.24-21.87,0-13.63-2.29-24.29-6.86-31.97-4.57-7.68-11.74-13.11-21.48-16.31-9.75-3.19-22.48-4.79-38.18-4.79-10.7,0-19.85.04-27.44.13-7.6.09-14.58.3-20.97.65-6.39.35-13.2.95-20.45,1.81v178.6h39.09v-70c7.76.08,17.15.12,28.21.12,5.35,0,9.53,1.12,12.55,3.36,3.02,2.24,5.31,6.3,6.86,12.17l13.72,54.36h41.67l-15.53-55.65ZM1150.43,284.82c-1.64,3.8-4.49,6.43-8.54,7.89-4.06,1.47-9.54,2.2-16.44,2.2h-28.99v-51.65c8.56-.08,18.22-.12,28.99-.12,6.9,0,12.38.74,16.44,2.2,4.05,1.47,6.9,4.06,8.54,7.77,1.64,3.71,2.46,9.02,2.46,15.92s-.82,12-2.46,15.79Z"/>
    </g>
    <g>
      <path d="M911.38,458.67c6.73,0,10.18,3.54,10.35,10.61l7.25,167.99h-25.37l-6.47-157.64h-5.18l-37.79,128.13c-1.38,5.69-5.01,8.54-10.87,8.54h-21.23c-6.04,0-9.84-2.85-11.39-8.54l-37.79-128.13h-5.18l-5.95,157.64h-25.37l6.99-167.99c.34-7.07,3.79-10.61,10.35-10.61h27.96c5.52,0,9.14,2.85,10.87,8.54l31.32,105.61c1.38,3.97,2.5,7.94,3.36,11.91.86,3.97,1.9,8.11,3.11,12.42h4.4c1.21-4.31,2.29-8.45,3.24-12.42.95-3.97,2.03-8.11,3.24-12.42l31.32-105.09c1.38-5.69,5-8.54,10.87-8.54h27.96Z"/>
      <path d="M1080.67,637.28h26.92l-56.43-171.61c-.69-2.07-1.9-3.75-3.62-5.05-1.73-1.29-3.71-1.94-5.95-1.94h-26.4c-2.24,0-4.23.65-5.95,1.94-1.73,1.29-2.94,2.98-3.62,5.05l-56.43,171.61h26.66l16.85-54.36h71.14l16.85,54.36ZM999.34,561.44l21.02-67.82c.86-2.59,1.64-5.18,2.33-7.77.69-2.59,1.38-5,2.07-7.25h7.25c.69,2.24,1.38,4.66,2.07,7.25.69,2.59,1.38,5.18,2.07,7.77l21.02,67.82h-57.82Z"/>
      <path d="M1231.31,637.28h29.25l-53.32-79.72c-1.38-2.24-3.11-4.44-5.18-6.6-2.07-2.16-4.23-4.27-6.47-6.34v-.52c2.07-1.9,3.92-3.75,5.57-5.57,1.64-1.81,3.24-3.92,4.79-6.34l50.99-73.51h-28.21l-52.61,75.58h-20.81c.31-1.83.58-3.65.81-5.44.6-4.83.91-9.92.91-15.27v-54.88h-25.63v178.6h25.63v-64.45c0-4.49-.35-9.23-1.04-14.24-.2-1.47-.43-2.94-.66-4.4h20.98l55.01,83.09Z"/>
      <path d="M1311.56,458.67v140.81c0,5.52,1.38,9.62,4.14,12.3,2.76,2.68,6.99,4.01,12.68,4.01h63.94l1.29,19.93c-11.56.87-23.3,1.38-35.2,1.55s-23.81.26-35.72.26c-13.12,0-22.52-3.24-28.21-9.71-5.69-6.47-8.54-14.62-8.54-24.46v-144.7h25.63Z"/>
      <g>
        <polygon points="1519.66 413.63 1506.2 394.74 1460.13 433.05 1468.41 444.18 1519.66 413.63"/>
        <path d="M1459.87,616.31c-5.18,0-8.97-1.33-11.39-4.01-2.42-2.67-3.62-6.86-3.62-12.55v-46.59h76.1v-19.93h-76.1v-37.02c0-5.69,1.21-9.84,3.62-12.42,2.41-2.59,6.21-3.88,11.39-3.88h71.18l1.04-19.93c-7.94-.52-16.27-.91-24.98-1.16-8.72-.26-17.56-.39-26.53-.39h-26.4c-10.7,0-19.2,2.85-25.5,8.54-6.3,5.69-9.54,13.46-9.71,23.3v115.45c.17,9.67,3.41,17.39,9.71,23.17,6.3,5.78,14.79,8.67,25.5,8.67,8.63,0,17.43-.04,26.4-.13,8.97-.09,17.82-.21,26.53-.39,8.71-.17,17.04-.52,24.98-1.04l-1.04-19.67h-71.18Z"/>
      </g>
      <g>
        <path d="M1678.08,581.11c-1.21-5.35-3.11-9.79-5.69-13.33-2.59-3.53-5.35-6.34-8.28-8.41-2.94-2.07-5.87-3.45-8.8-4.14v-1.29c8.11-1.04,14.54-3.36,19.28-6.99,4.74-3.62,8.24-8.63,10.48-15.01,2.24-6.38,3.36-14.32,3.36-23.81,0-13.46-1.99-23.94-5.95-31.45-3.97-7.51-10.31-12.77-19.03-15.79-8.72-3.02-20.15-4.53-34.3-4.53-9.67,0-17.99.04-24.98.13-6.99.09-13.42.3-19.28.65-5.87.35-12.08.87-18.64,1.55v178.6h25.63v-74.04c2.88.05,5.98.1,9.32.13,7.77.09,17.08.13,27.96.13,5.86,0,10.61,1.38,14.24,4.14,3.62,2.76,6.47,7.42,8.54,13.98l15.53,55.65h27.44l-16.82-56.17ZM1648.57,539.04c-4.83,1.81-11.48,2.81-19.93,2.98h-36.76v-63.95c10.36-.16,22.61-.25,36.76-.25,8.45,0,15.1.91,19.93,2.72,4.83,1.81,8.32,5.01,10.48,9.58,2.16,4.57,3.24,11.09,3.24,19.54s-1.08,15.01-3.24,19.67c-2.16,4.66-5.65,7.89-10.48,9.71Z"/>
        <polygon points="1629.67 444.18 1667.2 411.05 1658.92 400.69 1625.01 422.95 1622.94 422.95 1588.77 400.69 1580.75 411.05 1618.28 444.18 1629.67 444.18"/>
      </g>
    </g>
  </g>
  <g>
    <path d="M371.97,85.34L90.93,172.05v235.33c0,134.51,90.57,250.74,276.88,355.34l4.16,2.34,4.16-2.34c.77-.43,3.42-1.94,3.42-1.94,178.58-101.04,267.95-212.71,273.21-341.37.17-3.82.26-7.75.26-12.04v-235.33l-281.05-86.71ZM134.03,203.42l237.94-74.18,237.94,74.18v206.85c0,22.22-3.17,44.23-9.42,65.41-13.1,44.35-39.43,86.07-80.49,127.55-37,37.38-85.43,73.93-148.04,111.71-61.7-37.23-109.64-73.28-146.44-110.1-41.62-41.65-68.37-83.54-81.75-128.06-6.47-21.52-9.75-43.89-9.75-66.5v-206.85Z"/>
    <g>
      <path class="cls-2" d="M365.95,360.02c-.96.51-1.88,1.07-2.77,1.67-12.33,8.27-17.64,24.32-12.28,38.43,6.07,15.96,23.04,24.11,38.76,19.88,2.35-.63,4.67-1.53,6.92-2.73,14.29-7.61,20.8-24.97,15.05-40.1-6.97-18.35-28.36-26.38-45.69-17.15Z"/>
      <g>
        <path class="cls-1" d="M465.35,290.88c-29.4-29.65-71.49-43.26-114.51-37.31-.35.05-.7.09-1.05.14-4.29.61-8.57,1.45-12.84,2.5-1.11.28-2.21.55-3.33.86-4.83,1.32-9.65,2.91-14.42,4.8-24.2,9.56-44.14,25.25-58.75,44.6-11.01,14.57-20.01,31.12-25.02,48.72-3.44,14.57-4.5,29.76-2.96,44.97,1.98,6.3,7.74,10.86,14.53,11.21l15.48.8"/>
        <path class="cls-2" d="M247.01,411.37c-6.8-.35-12.56-4.91-14.53-11.21-1.54-15.2-.47-30.39,2.96-44.97,5.01-17.6,14.01-34.16,25.02-48.72,14.61-19.35,34.55-35.04,58.75-44.6,4.77-1.89,9.59-3.48,14.42-4.8,1.12-.3,2.22-.58,3.33-.86,4.27-1.05,8.55-1.89,12.84-2.5.35-.05.7-.09,1.05-.14,43.02-5.96,85.11,7.65,114.51,37.31l41.02-24.52c-2.38-2.66-4.82-5.23-7.35-7.7-8.42-8.63-17.62-16.36-27.46-23.08-37.26-25.5-83.41-36.78-129.3-30.13-3.89.56-7.78,1.24-11.67,2.07-10.92,2.32-21.77,5.68-32.46,10.11-7.17,2.98-14.03,6.37-20.59,10.13-3.78,2.15-7.47,4.43-11.05,6.82-34.65,23.2-59.5,57.13-71.87,95.29h0c-12.47,38.38-12.35,81.02,3.06,121.39l.07-.03,61.13-20.05,18.44-6.05,31.63-10.37.41-.18-62.35-3.21Z"/>
      </g>
      <g>
        <path class="cls-1" d="M286.8,463.75l-9.78,12.47c-4.2,5.36-4.55,12.69-1.09,18.32,10.45,11.15,22.61,20.32,35.85,27.3,16.56,7.78,34.96,11.87,53.17,13.13,13.51.95,27.25-.12,40.77-3.32,10.69-2.53,21.24-6.4,31.44-11.69,4.56-2.35,8.92-4.94,13.09-7.72.96-.64,1.9-1.3,2.83-1.95,3.6-2.53,7.04-5.2,10.32-8.04,33.52-28.78,51.23-70.2,47.8-112.52"/>
        <path d="M315.55,427.09l-.4.19-28.6,17.04-16.67,9.93-55.27,32.93-.06.03c.06.1.11.21.17.31,20.32,37.98,52.32,65.96,89.34,81.71h0c34.78,14.84,74,18.83,112.09,10.13,2.33-.53,4.65-1.11,6.97-1.73,4.15-1.12,8.3-2.41,12.4-3.85,7.15-2.48,14.21-5.43,21.16-8.88,10.36-5.14,20.02-11.12,28.94-17.83,40.58-30.53,65.74-76.09,71.42-124.73,1.39-11.83,1.6-23.84.63-35.87-.22-3.9-.59-7.8-1.11-11.71l-45.36,14.96c3.43,42.32-14.28,83.74-47.8,112.52-3.28,2.83-6.72,5.51-10.32,8.04-.94.65-1.87,1.31-2.83,1.95-4.17,2.78-8.53,5.36-13.09,7.72-10.2,5.28-20.75,9.15-31.44,11.69-13.52,3.21-27.26,4.27-40.77,3.32-18.21-1.26-36.61-5.35-53.17-13.13-13.24-6.98-25.4-16.15-35.85-27.3-3.46-5.63-3.11-12.97,1.09-18.32l9.78-12.47,28.75-36.66Z"/>
      </g>
    </g>
  </g>
</svg>